HIERARCHY
ROOT SpineBase
{
  OFFSET 0.000000 0.000000 0.000000
  CHANNELS 6 Xposition Yposition Zposition Zrotation Xrotation Yrotation
  JOINT SpineMid
  {
    OFFSET 0.000000 32.303082 0.000000
    CHANNELS 3 Zrotation Xrotation Yrotation
    JOINT SpineShoulder
    {
      OFFSET -0.097714 23.991331 -0.734277
      CHANNELS 3 Zrotation Xrotation Yrotation
      JOINT Neck
      {
        OFFSET -0.022088 7.985181 -0.661300
        CHANNELS 3 Zrotation Xrotation Yrotation
        JOINT Head
        {
          OFFSET 5.761632 12.231502 2.630220
          CHANNELS 3 Zrotation Xrotation Yrotation
          End Site
          {
            OFFSET 0 0 0
          }
        }
      }
      JOINT ShoulderLeft
      {
        OFFSET -0.947944 -3.910454 -11.636358
        CHANNELS 3 Zrotation Xrotation Yrotation
        JOINT ElbowLeft
        {
          OFFSET 5.715291 -24.283898 -9.149917
          CHANNELS 3 Zrotation Xrotation Yrotation
          JOINT WristLeft
          {
            OFFSET 6.131338 -24.365622 4.968381
            CHANNELS 3 Zrotation Xrotation Yrotation
            JOINT HandLeft
            {
              OFFSET 2.475060 -4.436362 1.165150
              CHANNELS 3 Zrotation Xrotation Yrotation
              JOINT HandTipLeft
              {
                OFFSET 0.246389 -5.205105 0.170500
                CHANNELS 3 Zrotation Xrotation Yrotation
                End Site
                {
                  OFFSET 0 0 0
                }
              }
              JOINT ThumbLeft
              {
                OFFSET 2.496459 1.226243 -0.607746
                CHANNELS 3 Zrotation Xrotation Yrotation
                End Site
                {
                  OFFSET 0 0 0
                }
              }
            }
          }
        }
      }
      JOINT ShoulderRight
      {
        OFFSET 7.522837 -9.092797 -16.787161
        CHANNELS 3 Zrotation Xrotation Yrotation
        JOINT ElbowRight
        {
          OFFSET 0.006526 -22.034780 -3.665916
          CHANNELS 3 Zrotation Xrotation Yrotation
          JOINT WristRight
          {
            OFFSET -0.279862 -21.841469 2.042318
            CHANNELS 3 Zrotation Xrotation Yrotation
            JOINT HandRight
            {
              OFFSET 2.286199 -2.751676 3.232868
              CHANNELS 3 Zrotation Xrotation Yrotation
              JOINT HandTipRight
              {
                OFFSET -0.730978 1.321685 -0.582548
                CHANNELS 3 Zrotation Xrotation Yrotation
                End Site
                {
                  OFFSET 0 0 0
                }
              }
              JOINT ThumbRight
              {
                OFFSET -1.073319 1.004195 -2.854832
                CHANNELS 3 Zrotation Xrotation Yrotation
                End Site
                {
                  OFFSET 0 0 0
                }
              }
            }
          }
        }
      }
    }
  }
  JOINT HipLeft
  {
    OFFSET -5.990686 1.577787 -5.501589
    CHANNELS 3 Zrotation Xrotation Yrotation
    JOINT KneeLeft
    {
      OFFSET 10.962962 -30.297496 0.583030
      CHANNELS 3 Zrotation Xrotation Yrotation
      JOINT AnkleLeft
      {
        OFFSET -3.233543 -38.780181 5.883363
        CHANNELS 3 Zrotation Xrotation Yrotation
        JOINT FootLeft
        {
          OFFSET -7.788687 5.079204 7.169433
          CHANNELS 3 Zrotation Xrotation Yrotation
          End Site
          {
            OFFSET 0 0 0
          }
        }
      }
    }
  }
  JOINT HipRight
  {
    OFFSET 4.649063 0.711234 -1.296742
    CHANNELS 3 Zrotation Xrotation Yrotation
    JOINT KneeRight
    {
      OFFSET -12.740284 -27.399502 15.488105
      CHANNELS 3 Zrotation Xrotation Yrotation
      JOINT AnkleRight
      {
        OFFSET -3.943183 -27.331987 4.988014
        CHANNELS 3 Zrotation Xrotation Yrotation
        JOINT FootRight
        {
          OFFSET -5.406850 -3.454656 -11.747891
          CHANNELS 3 Zrotation Xrotation Yrotation
          End Site
          {
            OFFSET 0 0 0
          }
        }
      }
    }
  }
}
MOTION
Frames: 10
Frame Time: 0.033333
70.353442 68.374779 307.364273 -1.826141 3.103402 -36.010083 -0.233435 -0.072385 36.004376 0.461006 0.744277 -0.048298 -16.238526 -4.114072 2.655950 0.000000 0.000000 0.000000 -1.075229 -2.920147 1.263621 3.630268 -0.944133 -0.971096 -24.096964 -17.149394 -20.869725 36.938357 38.602224 4.484291 0.000000 0.000000 0.000000 0.000000 0.000000 0.000000 -5.249261 0.724360 1.119457 5.763133 -4.022076 -1.033556 -15.122085 -0.444451 -21.237425 150.624903 -8.490319 42.501413 0.000000 0.000000 0.000000 0.000000 0.000000 0.000000 -3.349069 -11.295364 33.583890 -0.168938 9.525987 0.595754 14.635499 -46.565960 -98.555235 0.000000 0.000000 0.000000 14.969273 8.702442 44.030082 8.290472 -11.112044 -0.383303 -29.875144 22.154813 0.229048 0.000000 0.000000 0.000000
71.308203 68.036096 308.087356 -2.736234 3.717436 -33.871889 -0.126135 0.104818 33.893711 0.535134 0.804847 -0.070099 -19.979135 -3.900130 2.762990 0.000000 0.000000 0.000000 -3.021663 -4.089514 2.004826 6.728412 0.634745 -1.442345 -16.806502 -11.975234 -13.066040 30.790762 26.248516 4.051819 0.000000 0.000000 0.000000 0.000000 0.000000 0.000000 -7.099114 0.446435 1.468977 9.231942 -4.284000 -1.133032 -16.199998 2.209084 -19.035001 154.786278 1.065648 41.240323 0.000000 0.000000 0.000000 0.000000 0.000000 0.000000 -2.685639 -10.659387 31.664361 -1.666160 9.705763 0.354148 20.300353 -48.086282 -98.456232 0.000000 0.000000 0.000000 16.091868 8.044808 41.812337 13.026100 -13.507854 2.081791 -33.443942 21.486442 2.082434 0.000000 0.000000 0.000000
71.918275 67.832489 309.239363 -3.991969 4.092430 -32.274384 -0.069353 0.174203 32.321146 0.464192 0.904920 -0.126766 -21.766455 -3.181246 2.789035 0.000000 0.000000 0.000000 -4.910411 -4.739846 3.028446 11.162216 2.124051 -1.945355 -15.136590 -4.898406 -7.010086 27.105052 10.598536 3.392827 0.000000 0.000000 0.000000 0.000000 0.000000 0.000000 -7.511551 0.661015 1.822671 10.853062 -6.160000 -1.238131 -20.558240 11.752086 -17.005315 165.149733 14.136544 40.292288 0.000000 0.000000 0.000000 0.000000 0.000000 0.000000 -1.091836 -8.784503 30.663911 -4.366749 9.218989 -0.166283 25.819252 -49.313797 -98.370440 0.000000 0.000000 0.000000 17.300684 7.097165 40.180865 17.529181 -13.190106 3.289083 -35.135295 19.376578 -0.443302 0.000000 0.000000 0.000000
73.465760 67.908533 310.651747 -4.508602 4.474298 -33.668611 0.115143 0.153390 33.740320 0.666016 0.705517 -0.126217 -23.531345 -2.582952 2.878510 0.000000 0.000000 0.000000 -7.452635 -4.759369 3.879076 14.853542 3.999826 -2.253757 -16.277046 4.694759 -0.258081 27.470786 -6.341185 1.753145 0.000000 0.000000 0.000000 0.000000 0.000000 0.000000 -8.586999 1.102296 2.043453 12.487276 -7.873502 -1.208362 -24.041275 18.958320 -13.847779 168.501127 13.565208 47.140967 0.000000 0.000000 0.000000 0.000000 0.000000 0.000000 -1.036090 -9.152252 32.068925 -4.381172 9.923125 -0.261369 28.517313 -51.317690 -100.351881 0.000000 0.000000 0.000000 17.397657 6.780898 41.393497 18.915514 -11.032256 2.767228 -32.819355 14.058046 -6.135121 0.000000 0.000000 0.000000
75.680535 67.860786 312.460660 -4.523266 4.558208 -33.921642 0.125007 0.154956 33.997709 0.677898 0.682024 -0.125522 -24.768098 -0.817277 2.651903 0.000000 0.000000 0.000000 -10.740999 -5.402947 4.668663 18.965443 7.378329 -2.593285 -21.098779 11.267713 3.817863 28.358260 -19.542128 0.742883 0.000000 0.000000 0.000000 0.000000 0.000000 0.000000 -9.630225 1.364472 2.203079 13.730414 -8.643879 -1.214760 -26.982833 24.945737 -9.534890 172.198047 14.789756 53.496707 0.000000 0.000000 0.000000 0.000000 0.000000 0.000000 -2.805002 -8.761993 32.688979 -4.182443 8.993690 -1.071814 29.315125 -52.851597 -103.821187 0.000000 0.000000 0.000000 17.855085 5.300554 42.154949 15.402492 -6.900384 -0.531406 -27.208799 9.601611 -10.972420 0.000000 0.000000 0.000000
78.510163 67.770367 314.534198 -4.299044 4.678136 -32.940202 0.252847 0.215478 33.028293 0.799186 0.596448 -0.096353 -25.037291 -1.052248 2.603773 0.000000 0.000000 0.000000 -14.802802 -5.725121 5.581610 22.789483 11.049785 -3.020147 -24.458580 11.342177 3.197024 33.332592 -26.096667 2.408668 0.000000 0.000000 0.000000 0.000000 0.000000 0.000000 -10.526647 1.546902 2.214583 14.199215 -8.958152 -1.212988 -30.015448 29.322837 -6.704600 175.720571 13.954215 58.460334 0.000000 0.000000 0.000000 0.000000 0.000000 0.000000 -6.201719 -7.965222 32.380715 -3.138844 6.644547 -2.512661 28.386786 -53.539515 -107.435455 0.000000 0.000000 0.000000 18.553251 2.613574 42.115148 11.318743 -0.937505 -4.441413 -21.188285 4.773685 -13.938853 0.000000 0.000000 0.000000
81.431639 67.600649 316.582808 -3.858783 4.705715 -31.045387 0.260605 0.301650 31.136313 0.883306 0.559915 -0.063417 -25.271787 -1.339829 2.507461 0.000000 0.000000 0.000000 -18.794241 -6.297403 6.328588 25.897195 14.350842 -3.571197 -27.442235 12.480527 3.391140 38.738013 -32.359377 4.539853 0.000000 0.000000 0.000000 0.000000 0.000000 0.000000 -10.554289 1.393141 2.042841 13.517378 -8.547911 -1.213465 -32.397540 31.220399 -7.380215 -179.660784 11.386487 59.757759 0.000000 0.000000 0.000000 0.000000 0.000000 0.000000 -9.911014 -6.357550 31.476191 -3.471261 3.198143 -4.474931 29.472205 -53.914736 -111.744305 0.000000 0.000000 0.000000 19.488247 -0.615963 41.684135 7.312784 6.081263 -8.288984 -15.552968 -0.064955 -14.544387 0.000000 0.000000 0.000000
84.228203 67.432338 318.357552 -3.383874 4.862653 -28.691108 0.035865 0.370000 28.776686 0.795280 0.625884 -0.056057 -23.859160 -3.038875 2.372587 0.000000 0.000000 0.000000 -22.403272 -7.329281 6.888520 28.631768 17.551970 -4.165931 -29.455961 9.531075 -0.317335 45.102488 -28.685098 7.447572 0.000000 0.000000 0.000000 0.000000 0.000000 0.000000 -10.567986 0.804845 1.883089 13.270142 -8.320934 -1.230714 -35.445066 33.630322 -8.212700 -170.287515 3.302922 64.801327 0.000000 0.000000 0.000000 0.000000 0.000000 0.000000 -13.750362 -4.447450 30.293816 -2.726317 -0.237077 -6.457736 24.081364 -52.533477 -114.723335 0.000000 0.000000 0.000000 20.135332 -4.420578 40.854506 4.027938 13.470295 -11.341487 -10.661002 -3.652033 -12.963630 0.000000 0.000000 0.000000
86.861181 67.270415 319.928303 -2.709206 4.942984 -25.584671 0.056565 0.404805 25.664880 0.716130 0.684808 -0.031698 -22.608866 -3.727837 2.133218 0.000000 0.000000 0.000000 -26.351334 -8.569093 7.196438 30.717222 20.562115 -4.928174 -31.352888 4.605900 -6.492645 49.688731 -20.892511 9.124493 0.000000 0.000000 0.000000 0.000000 0.000000 0.000000 -11.241154 0.699084 1.779603 13.327645 -8.375169 -1.232878 -35.779640 33.247553 -10.159546 -162.401867 -10.324953 74.552187 0.000000 0.000000 0.000000 0.000000 0.000000 0.000000 -17.787897 -1.725551 28.725295 -1.109921 -4.075925 -8.388378 17.577495 -49.890627 -113.174198 0.000000 0.000000 0.000000 20.444044 -7.889066 39.364155 1.277504 19.208031 -13.409880 -6.787540 -6.615520 -10.582315 0.000000 0.000000 0.000000
89.022730 67.081009 321.024864 -2.186669 5.146172 -21.913156 -0.145838 0.460891 21.980127 0.578327 0.802299 -0.030030 -21.114354 -5.072997 1.969129 0.000000 0.000000 0.000000 -29.462073 -10.289636 7.087832 32.160519 22.752268 -5.779367 -29.275935 0.845512 -8.993022 48.380044 -15.184697 8.365400 0.000000 0.000000 0.000000 0.000000 0.000000 0.000000 -11.424126 0.232595 1.651502 13.305608 -8.357190 -1.237413 -36.239943 33.123825 -11.714091 -157.422722 -20.824860 82.988202 0.000000 0.000000 0.000000 0.000000 0.000000 0.000000 -20.619848 1.416883 26.710520 0.414407 -7.439470 -9.869821 7.136254 -46.157505 -108.633227 0.000000 0.000000 0.000000 20.200865 -10.959979 36.894707 -0.879139 22.918034 -14.406119 -4.270386 -6.957795 -9.015402 0.000000 0.000000 0.000000
